<mxfile host="app.diagrams.net" modified="2022-06-16T13:28:51.386Z" agent="5.0 (Windows)" etag="QblFfZp7Ea4FbdUdWjzC" version="20.0.1" type="github">
  <diagram id="qmqjdCt1RmePAplTEKFP" name="Page-1">
    <mxGraphModel dx="3122" dy="1844" grid="1" gridSize="10" guides="1" tooltips="1" connect="1" arrows="1" fold="1" page="1" pageScale="1" pageWidth="850" pageHeight="1100" math="0" shadow="0">
      <root>
        <mxCell id="0" />
        <mxCell id="1" parent="0" />
        <mxCell id="PCtdLvsHWJHb6pZdZKXN-7" value="" style="edgeStyle=orthogonalEdgeStyle;shape=flexArrow;rounded=0;orthogonalLoop=1;jettySize=auto;html=1;" parent="1" source="PCtdLvsHWJHb6pZdZKXN-1" target="PCtdLvsHWJHb6pZdZKXN-6" edge="1">
          <mxGeometry relative="1" as="geometry" />
        </mxCell>
        <mxCell id="PCtdLvsHWJHb6pZdZKXN-1" value="&lt;h3&gt;وارد سایت شدن&lt;/h3&gt;" style="rounded=1;whiteSpace=wrap;html=1;fillColor=#f8cecc;strokeColor=#b85450;fontStyle=2;fontFamily=Helvetica;strokeWidth=3;" parent="1" vertex="1">
          <mxGeometry x="-840.14" y="-1010" width="120" height="60" as="geometry" />
        </mxCell>
        <mxCell id="PCtdLvsHWJHb6pZdZKXN-5" value="" style="edgeStyle=orthogonalEdgeStyle;shape=flexArrow;rounded=0;orthogonalLoop=1;jettySize=auto;html=1;" parent="1" source="PCtdLvsHWJHb6pZdZKXN-2" target="PCtdLvsHWJHb6pZdZKXN-1" edge="1">
          <mxGeometry relative="1" as="geometry" />
        </mxCell>
        <mxCell id="PCtdLvsHWJHb6pZdZKXN-2" value="&lt;h1 style=&quot;line-height: 1.4;&quot;&gt;شروع&lt;/h1&gt;" style="ellipse;whiteSpace=wrap;html=1;fillColor=#dae8fc;strokeColor=#6c8ebf;strokeWidth=3;" parent="1" vertex="1">
          <mxGeometry x="-660.14" y="-1020" width="120" height="80" as="geometry" />
        </mxCell>
        <mxCell id="PCtdLvsHWJHb6pZdZKXN-12" value="" style="edgeStyle=orthogonalEdgeStyle;shape=flexArrow;rounded=0;orthogonalLoop=1;jettySize=auto;html=1;fontFamily=Helvetica;" parent="1" source="PCtdLvsHWJHb6pZdZKXN-6" target="PCtdLvsHWJHb6pZdZKXN-8" edge="1">
          <mxGeometry relative="1" as="geometry" />
        </mxCell>
        <mxCell id="PCtdLvsHWJHb6pZdZKXN-6" value="&lt;h3&gt;انتحاب ورود&lt;/h3&gt;" style="rounded=1;html=1;fillColor=#f8cecc;strokeColor=#b85450;labelBackgroundColor=none;labelBorderColor=none;whiteSpace=wrap;strokeWidth=3;" parent="1" vertex="1">
          <mxGeometry x="-1000.14" y="-1010" width="120" height="60" as="geometry" />
        </mxCell>
        <mxCell id="PCtdLvsHWJHb6pZdZKXN-13" value="" style="edgeStyle=orthogonalEdgeStyle;shape=flexArrow;rounded=0;orthogonalLoop=1;jettySize=auto;html=1;fontFamily=Helvetica;" parent="1" source="PCtdLvsHWJHb6pZdZKXN-8" target="PCtdLvsHWJHb6pZdZKXN-9" edge="1">
          <mxGeometry relative="1" as="geometry" />
        </mxCell>
        <mxCell id="PCtdLvsHWJHb6pZdZKXN-8" value="&lt;h3&gt;وارد کردن شماره&lt;/h3&gt;" style="rounded=1;html=1;fillColor=#f8cecc;strokeColor=#b85450;labelBackgroundColor=none;labelBorderColor=none;whiteSpace=wrap;strokeWidth=3;" parent="1" vertex="1">
          <mxGeometry x="-1170.1399999999999" y="-1010" width="120" height="60" as="geometry" />
        </mxCell>
        <mxCell id="PCtdLvsHWJHb6pZdZKXN-14" value="" style="edgeStyle=orthogonalEdgeStyle;shape=flexArrow;rounded=0;orthogonalLoop=1;jettySize=auto;html=1;fontFamily=Helvetica;" parent="1" source="PCtdLvsHWJHb6pZdZKXN-9" target="PCtdLvsHWJHb6pZdZKXN-11" edge="1">
          <mxGeometry relative="1" as="geometry" />
        </mxCell>
        <mxCell id="PCtdLvsHWJHb6pZdZKXN-9" value="&lt;h3&gt;وارد کردن کد تایید&lt;/h3&gt;" style="rounded=1;html=1;fillColor=#f8cecc;strokeColor=#b85450;labelBackgroundColor=none;labelBorderColor=none;whiteSpace=wrap;strokeWidth=3;" parent="1" vertex="1">
          <mxGeometry x="-1340.1399999999999" y="-1010" width="120" height="60" as="geometry" />
        </mxCell>
        <mxCell id="PCtdLvsHWJHb6pZdZKXN-34" style="edgeStyle=orthogonalEdgeStyle;shape=flexArrow;rounded=0;orthogonalLoop=1;jettySize=auto;html=1;entryX=0.5;entryY=0;entryDx=0;entryDy=0;fontFamily=Helvetica;" parent="1" source="PCtdLvsHWJHb6pZdZKXN-10" target="PCtdLvsHWJHb6pZdZKXN-33" edge="1">
          <mxGeometry relative="1" as="geometry" />
        </mxCell>
        <mxCell id="PCtdLvsHWJHb6pZdZKXN-35" style="edgeStyle=orthogonalEdgeStyle;shape=flexArrow;rounded=0;orthogonalLoop=1;jettySize=auto;html=1;entryX=0.5;entryY=0;entryDx=0;entryDy=0;fontFamily=Helvetica;" parent="1" source="PCtdLvsHWJHb6pZdZKXN-10" target="PCtdLvsHWJHb6pZdZKXN-32" edge="1">
          <mxGeometry relative="1" as="geometry" />
        </mxCell>
        <mxCell id="PCtdLvsHWJHb6pZdZKXN-36" style="edgeStyle=orthogonalEdgeStyle;shape=flexArrow;rounded=0;orthogonalLoop=1;jettySize=auto;html=1;fontFamily=Helvetica;" parent="1" source="PCtdLvsHWJHb6pZdZKXN-10" target="PCtdLvsHWJHb6pZdZKXN-31" edge="1">
          <mxGeometry relative="1" as="geometry">
            <Array as="points">
              <mxPoint x="-940.14" y="-660" />
              <mxPoint x="-1160.1399999999999" y="-660" />
            </Array>
          </mxGeometry>
        </mxCell>
        <mxCell id="PCtdLvsHWJHb6pZdZKXN-37" style="edgeStyle=orthogonalEdgeStyle;shape=flexArrow;rounded=0;orthogonalLoop=1;jettySize=auto;html=1;exitX=0.5;exitY=0;exitDx=0;exitDy=0;entryX=0.5;entryY=0;entryDx=0;entryDy=0;fontFamily=Helvetica;" parent="1" source="PCtdLvsHWJHb6pZdZKXN-10" target="PCtdLvsHWJHb6pZdZKXN-30" edge="1">
          <mxGeometry relative="1" as="geometry">
            <Array as="points">
              <mxPoint x="-940.14" y="-660" />
              <mxPoint x="-1540.1399999999999" y="-660" />
            </Array>
          </mxGeometry>
        </mxCell>
        <mxCell id="PCtdLvsHWJHb6pZdZKXN-80" value="" style="edgeStyle=orthogonalEdgeStyle;shape=flexArrow;rounded=0;orthogonalLoop=1;jettySize=auto;html=1;fontFamily=Helvetica;fontSize=17;" parent="1" source="PCtdLvsHWJHb6pZdZKXN-10" target="PCtdLvsHWJHb6pZdZKXN-79" edge="1">
          <mxGeometry relative="1" as="geometry" />
        </mxCell>
        <mxCell id="PCtdLvsHWJHb6pZdZKXN-10" value="&lt;h3&gt;ورود به پنل کاربری&lt;/h3&gt;" style="rounded=1;html=1;fillColor=#f8cecc;strokeColor=#b85450;labelBackgroundColor=none;labelBorderColor=none;whiteSpace=wrap;strokeWidth=3;" parent="1" vertex="1">
          <mxGeometry x="-1000.14" y="-825" width="120" height="60" as="geometry" />
        </mxCell>
        <mxCell id="PCtdLvsHWJHb6pZdZKXN-15" value="" style="edgeStyle=orthogonalEdgeStyle;shape=flexArrow;rounded=0;orthogonalLoop=1;jettySize=auto;html=1;fontFamily=Helvetica;" parent="1" source="PCtdLvsHWJHb6pZdZKXN-11" target="PCtdLvsHWJHb6pZdZKXN-10" edge="1">
          <mxGeometry relative="1" as="geometry" />
        </mxCell>
        <mxCell id="PCtdLvsHWJHb6pZdZKXN-23" value="" style="edgeStyle=orthogonalEdgeStyle;shape=flexArrow;rounded=0;orthogonalLoop=1;jettySize=auto;html=1;fontFamily=Helvetica;" parent="1" source="PCtdLvsHWJHb6pZdZKXN-11" target="PCtdLvsHWJHb6pZdZKXN-22" edge="1">
          <mxGeometry relative="1" as="geometry" />
        </mxCell>
        <mxCell id="PCtdLvsHWJHb6pZdZKXN-11" value="&lt;div align=&quot;center&quot;&gt;&lt;h3&gt;کد تایید درست بود؟&lt;/h3&gt;&lt;/div&gt;&lt;div align=&quot;center&quot;&gt;&lt;h3&gt;&lt;br&gt;&lt;/h3&gt;&lt;/div&gt;" style="html=1;whiteSpace=wrap;aspect=fixed;shape=isoRectangle;labelBackgroundColor=none;labelBorderColor=none;fontFamily=Helvetica;rotation=90;verticalAlign=middle;fillColor=#fff2cc;strokeColor=#d6b656;strokeWidth=2;horizontal=0;align=center;" parent="1" vertex="1">
          <mxGeometry x="-1388.4699999999998" y="-860" width="216.65" height="130" as="geometry" />
        </mxCell>
        <mxCell id="PCtdLvsHWJHb6pZdZKXN-20" value="&lt;h3&gt;بله&lt;/h3&gt;" style="text;html=1;align=center;verticalAlign=middle;resizable=0;points=[];autosize=1;strokeColor=none;fillColor=none;fontFamily=Helvetica;" parent="1" vertex="1">
          <mxGeometry x="-1205.1399999999999" y="-855" width="30" height="50" as="geometry" />
        </mxCell>
        <mxCell id="PCtdLvsHWJHb6pZdZKXN-21" value="&lt;h3&gt;خیر&lt;/h3&gt;" style="text;html=1;align=center;verticalAlign=middle;resizable=0;points=[];autosize=1;strokeColor=none;fillColor=none;fontFamily=Helvetica;" parent="1" vertex="1">
          <mxGeometry x="-1380.1399999999999" y="-855" width="30" height="50" as="geometry" />
        </mxCell>
        <mxCell id="PCtdLvsHWJHb6pZdZKXN-26" value="" style="edgeStyle=orthogonalEdgeStyle;shape=flexArrow;rounded=0;orthogonalLoop=1;jettySize=auto;html=1;fontFamily=Helvetica;entryX=0;entryY=0.5;entryDx=0;entryDy=0;exitX=-0.003;exitY=0.516;exitDx=0;exitDy=0;exitPerimeter=0;" parent="1" source="PCtdLvsHWJHb6pZdZKXN-22" target="PCtdLvsHWJHb6pZdZKXN-9" edge="1">
          <mxGeometry relative="1" as="geometry">
            <mxPoint x="-1458.4733333333334" y="-974.9999999999998" as="targetPoint" />
            <Array as="points">
              <mxPoint x="-1460.1399999999999" y="-980" />
            </Array>
          </mxGeometry>
        </mxCell>
        <mxCell id="PCtdLvsHWJHb6pZdZKXN-22" value="&lt;div align=&quot;center&quot;&gt;&lt;h3&gt;زمان انقضای کد &lt;br&gt;&lt;/h3&gt;&lt;h3&gt;گذشته است؟&lt;/h3&gt;&lt;h3&gt;&lt;/h3&gt;&lt;/div&gt;&lt;div align=&quot;center&quot;&gt;&lt;h3&gt;&lt;br&gt;&lt;/h3&gt;&lt;/div&gt;" style="html=1;aspect=fixed;shape=isoRectangle;labelBackgroundColor=none;labelBorderColor=none;fontFamily=Helvetica;rotation=90;verticalAlign=middle;fillColor=#fff2cc;strokeColor=#d6b656;strokeWidth=2;horizontal=0;align=center;whiteSpace=wrap;" parent="1" vertex="1">
          <mxGeometry x="-1566.79" y="-860" width="216.65" height="130" as="geometry" />
        </mxCell>
        <mxCell id="PCtdLvsHWJHb6pZdZKXN-27" value="&lt;h3&gt;خیر&lt;/h3&gt;" style="text;html=1;align=center;verticalAlign=middle;resizable=0;points=[];autosize=1;strokeColor=none;fillColor=none;fontFamily=Helvetica;" parent="1" vertex="1">
          <mxGeometry x="-1440.1399999999999" y="-1030" width="30" height="50" as="geometry" />
        </mxCell>
        <mxCell id="PCtdLvsHWJHb6pZdZKXN-28" value="&lt;h3&gt;بله&lt;/h3&gt;" style="text;html=1;align=center;verticalAlign=middle;resizable=0;points=[];autosize=1;strokeColor=none;fillColor=none;fontFamily=Helvetica;" parent="1" vertex="1">
          <mxGeometry x="-1570.1399999999999" y="-855" width="30" height="50" as="geometry" />
        </mxCell>
        <mxCell id="PCtdLvsHWJHb6pZdZKXN-29" value="" style="edgeStyle=orthogonalEdgeStyle;shape=flexArrow;rounded=0;orthogonalLoop=1;jettySize=auto;html=1;fontFamily=Helvetica;exitX=0.5;exitY=0.966;exitDx=0;exitDy=0;exitPerimeter=0;entryX=0.58;entryY=-0.048;entryDx=0;entryDy=0;entryPerimeter=0;" parent="1" source="PCtdLvsHWJHb6pZdZKXN-22" target="PCtdLvsHWJHb6pZdZKXN-8" edge="1">
          <mxGeometry relative="1" as="geometry">
            <mxPoint x="-1650.1350000000002" y="-805.00495" as="sourcePoint" />
            <mxPoint x="-1090.1399999999999" y="-1060" as="targetPoint" />
            <Array as="points">
              <mxPoint x="-1650.1399999999999" y="-795" />
              <mxPoint x="-1650.1399999999999" y="-1060" />
              <mxPoint x="-1100.1399999999999" y="-1060" />
            </Array>
          </mxGeometry>
        </mxCell>
        <mxCell id="PCtdLvsHWJHb6pZdZKXN-72" value="" style="edgeStyle=orthogonalEdgeStyle;shape=flexArrow;rounded=0;orthogonalLoop=1;jettySize=auto;html=1;fontFamily=Helvetica;fontSize=17;" parent="1" source="PCtdLvsHWJHb6pZdZKXN-30" target="PCtdLvsHWJHb6pZdZKXN-71" edge="1">
          <mxGeometry relative="1" as="geometry" />
        </mxCell>
        <mxCell id="PCtdLvsHWJHb6pZdZKXN-30" value="&lt;h3 style=&quot;font-size: 17px;&quot;&gt;خرید های فروشگاه&lt;br&gt;&lt;/h3&gt;" style="rounded=1;html=1;fillColor=#f8cecc;strokeColor=#b85450;labelBackgroundColor=none;labelBorderColor=none;whiteSpace=wrap;strokeWidth=3;" parent="1" vertex="1">
          <mxGeometry x="-1600.1399999999999" y="-560" width="120" height="60" as="geometry" />
        </mxCell>
        <mxCell id="PCtdLvsHWJHb6pZdZKXN-64" value="" style="edgeStyle=orthogonalEdgeStyle;shape=flexArrow;rounded=0;orthogonalLoop=1;jettySize=auto;html=1;fontFamily=Helvetica;fontSize=17;" parent="1" source="PCtdLvsHWJHb6pZdZKXN-31" target="PCtdLvsHWJHb6pZdZKXN-63" edge="1">
          <mxGeometry relative="1" as="geometry" />
        </mxCell>
        <mxCell id="PCtdLvsHWJHb6pZdZKXN-31" value="&lt;font style=&quot;font-size: 17px;&quot;&gt;حساب کاربری&lt;br&gt;&lt;/font&gt;" style="rounded=1;html=1;fillColor=#f8cecc;strokeColor=#b85450;labelBackgroundColor=none;labelBorderColor=none;whiteSpace=wrap;strokeWidth=3;" parent="1" vertex="1">
          <mxGeometry x="-1220.1399999999999" y="-570" width="120" height="60" as="geometry" />
        </mxCell>
        <mxCell id="PCtdLvsHWJHb6pZdZKXN-59" value="" style="edgeStyle=orthogonalEdgeStyle;shape=flexArrow;rounded=0;orthogonalLoop=1;jettySize=auto;html=1;fontFamily=Helvetica;" parent="1" source="PCtdLvsHWJHb6pZdZKXN-32" target="PCtdLvsHWJHb6pZdZKXN-58" edge="1">
          <mxGeometry relative="1" as="geometry" />
        </mxCell>
        <mxCell id="PCtdLvsHWJHb6pZdZKXN-32" value="&lt;h3&gt;پروژه های پرداخت شده&lt;/h3&gt;" style="rounded=1;html=1;fillColor=#f8cecc;strokeColor=#b85450;labelBackgroundColor=none;labelBorderColor=none;whiteSpace=wrap;strokeWidth=3;" parent="1" vertex="1">
          <mxGeometry x="-880.14" y="-610" width="120" height="60" as="geometry" />
        </mxCell>
        <mxCell id="PCtdLvsHWJHb6pZdZKXN-39" style="edgeStyle=orthogonalEdgeStyle;shape=flexArrow;rounded=0;orthogonalLoop=1;jettySize=auto;html=1;entryX=0.5;entryY=0;entryDx=0;entryDy=0;fontFamily=Helvetica;" parent="1" source="PCtdLvsHWJHb6pZdZKXN-33" target="PCtdLvsHWJHb6pZdZKXN-38" edge="1">
          <mxGeometry relative="1" as="geometry" />
        </mxCell>
        <mxCell id="PCtdLvsHWJHb6pZdZKXN-33" value="&lt;h3&gt;کیف پول&lt;/h3&gt;" style="rounded=1;html=1;fillColor=#f8cecc;strokeColor=#b85450;labelBackgroundColor=none;labelBorderColor=none;whiteSpace=wrap;strokeWidth=3;" parent="1" vertex="1">
          <mxGeometry x="-610.14" y="-670" width="120" height="60" as="geometry" />
        </mxCell>
        <mxCell id="PCtdLvsHWJHb6pZdZKXN-40" style="edgeStyle=orthogonalEdgeStyle;shape=flexArrow;rounded=0;orthogonalLoop=1;jettySize=auto;html=1;fontFamily=Helvetica;" parent="1" source="PCtdLvsHWJHb6pZdZKXN-38" edge="1">
          <mxGeometry relative="1" as="geometry">
            <mxPoint x="-550.14" y="-390" as="targetPoint" />
          </mxGeometry>
        </mxCell>
        <mxCell id="PCtdLvsHWJHb6pZdZKXN-38" value="&lt;h3&gt;وارد کردن مبلغ&lt;/h3&gt;" style="rounded=1;html=1;fillColor=#f8cecc;strokeColor=#b85450;labelBackgroundColor=none;labelBorderColor=none;whiteSpace=wrap;strokeWidth=3;" parent="1" vertex="1">
          <mxGeometry x="-610.14" y="-540" width="120" height="60" as="geometry" />
        </mxCell>
        <mxCell id="PCtdLvsHWJHb6pZdZKXN-50" style="edgeStyle=orthogonalEdgeStyle;shape=flexArrow;rounded=0;orthogonalLoop=1;jettySize=auto;html=1;entryX=0.5;entryY=0.031;entryDx=0;entryDy=0;entryPerimeter=0;fontFamily=Helvetica;" parent="1" source="PCtdLvsHWJHb6pZdZKXN-41" target="PCtdLvsHWJHb6pZdZKXN-43" edge="1">
          <mxGeometry relative="1" as="geometry" />
        </mxCell>
        <mxCell id="PCtdLvsHWJHb6pZdZKXN-41" value="&lt;h3&gt;پرداخت&lt;/h3&gt;" style="rounded=1;html=1;fillColor=#f8cecc;strokeColor=#b85450;labelBackgroundColor=none;labelBorderColor=none;whiteSpace=wrap;strokeWidth=3;" parent="1" vertex="1">
          <mxGeometry x="-610.14" y="-400" width="120" height="60" as="geometry" />
        </mxCell>
        <mxCell id="PCtdLvsHWJHb6pZdZKXN-44" style="edgeStyle=orthogonalEdgeStyle;shape=flexArrow;rounded=0;orthogonalLoop=1;jettySize=auto;html=1;fontFamily=Helvetica;entryX=0.5;entryY=1;entryDx=0;entryDy=0;exitX=0.98;exitY=0.492;exitDx=0;exitDy=0;exitPerimeter=0;" parent="1" source="PCtdLvsHWJHb6pZdZKXN-43" target="PCtdLvsHWJHb6pZdZKXN-45" edge="1">
          <mxGeometry relative="1" as="geometry">
            <mxPoint x="-340.14" y="-340" as="targetPoint" />
            <mxPoint x="-340.14" y="-150" as="sourcePoint" />
            <Array as="points">
              <mxPoint x="-345.14" y="-216" />
            </Array>
          </mxGeometry>
        </mxCell>
        <mxCell id="PCtdLvsHWJHb6pZdZKXN-54" style="edgeStyle=orthogonalEdgeStyle;shape=flexArrow;rounded=0;orthogonalLoop=1;jettySize=auto;html=1;fontFamily=Helvetica;entryX=0.5;entryY=0;entryDx=0;entryDy=0;" parent="1" source="PCtdLvsHWJHb6pZdZKXN-43" target="PCtdLvsHWJHb6pZdZKXN-53" edge="1">
          <mxGeometry relative="1" as="geometry">
            <mxPoint x="-550.14" y="10" as="targetPoint" />
          </mxGeometry>
        </mxCell>
        <mxCell id="PCtdLvsHWJHb6pZdZKXN-43" value="&lt;h3&gt;موفقیت آمیز بود؟&lt;/h3&gt;" style="html=1;whiteSpace=wrap;aspect=fixed;shape=isoRectangle;labelBackgroundColor=none;labelBorderColor=none;fontFamily=Helvetica;rotation=0;verticalAlign=middle;fillColor=#fff2cc;strokeColor=#d6b656;strokeWidth=2;horizontal=1;align=center;" parent="1" vertex="1">
          <mxGeometry x="-658.4599999999998" y="-280" width="216.65" height="130" as="geometry" />
        </mxCell>
        <mxCell id="PCtdLvsHWJHb6pZdZKXN-46" style="edgeStyle=orthogonalEdgeStyle;shape=flexArrow;rounded=0;orthogonalLoop=1;jettySize=auto;html=1;entryX=1;entryY=0.5;entryDx=0;entryDy=0;fontFamily=Helvetica;exitX=0.5;exitY=0;exitDx=0;exitDy=0;" parent="1" source="PCtdLvsHWJHb6pZdZKXN-45" target="PCtdLvsHWJHb6pZdZKXN-33" edge="1">
          <mxGeometry relative="1" as="geometry" />
        </mxCell>
        <mxCell id="PCtdLvsHWJHb6pZdZKXN-45" value="&lt;h3&gt;عدم پرداخت موفق&lt;/h3&gt;" style="shape=parallelogram;perimeter=parallelogramPerimeter;whiteSpace=wrap;html=1;fixedSize=1;labelBackgroundColor=none;labelBorderColor=none;fontFamily=Helvetica;strokeWidth=3;fillColor=#e1d5e7;strokeColor=#9673a6;" parent="1" vertex="1">
          <mxGeometry x="-430.14" y="-470" width="170" height="100" as="geometry" />
        </mxCell>
        <mxCell id="PCtdLvsHWJHb6pZdZKXN-51" value="&lt;h3&gt;بله&lt;/h3&gt;" style="text;html=1;align=center;verticalAlign=middle;resizable=0;points=[];autosize=1;strokeColor=none;fillColor=none;fontFamily=Helvetica;" parent="1" vertex="1">
          <mxGeometry x="-690.14" y="-280" width="30" height="50" as="geometry" />
        </mxCell>
        <mxCell id="PCtdLvsHWJHb6pZdZKXN-57" style="edgeStyle=orthogonalEdgeStyle;shape=flexArrow;rounded=0;orthogonalLoop=1;jettySize=auto;html=1;entryX=0;entryY=0.5;entryDx=0;entryDy=0;fontFamily=Helvetica;" parent="1" source="PCtdLvsHWJHb6pZdZKXN-53" target="PCtdLvsHWJHb6pZdZKXN-56" edge="1">
          <mxGeometry relative="1" as="geometry" />
        </mxCell>
        <mxCell id="PCtdLvsHWJHb6pZdZKXN-53" value="&lt;h3&gt;&amp;nbsp;پرداخت با موفقیت صورت گرفت&lt;/h3&gt;" style="shape=parallelogram;perimeter=parallelogramPerimeter;whiteSpace=wrap;html=1;fixedSize=1;labelBackgroundColor=none;labelBorderColor=none;fontFamily=Helvetica;strokeWidth=3;fillColor=#e1d5e7;strokeColor=#9673a6;" parent="1" vertex="1">
          <mxGeometry x="-850" y="-170" width="170" height="100" as="geometry" />
        </mxCell>
        <mxCell id="PCtdLvsHWJHb6pZdZKXN-55" value="&lt;h3&gt;خیر&lt;/h3&gt;" style="text;html=1;align=center;verticalAlign=middle;resizable=0;points=[];autosize=1;strokeColor=none;fillColor=none;fontFamily=Helvetica;" parent="1" vertex="1">
          <mxGeometry x="-420.1399999999999" y="-280" width="30" height="50" as="geometry" />
        </mxCell>
        <mxCell id="PCtdLvsHWJHb6pZdZKXN-56" value="&lt;h3&gt;افزایش اعتبار&lt;/h3&gt;" style="rounded=1;html=1;fillColor=#f8cecc;strokeColor=#b85450;labelBackgroundColor=none;labelBorderColor=none;whiteSpace=wrap;strokeWidth=3;" parent="1" vertex="1">
          <mxGeometry x="-405.14" y="-150" width="120" height="60" as="geometry" />
        </mxCell>
        <mxCell id="PCtdLvsHWJHb6pZdZKXN-62" style="edgeStyle=orthogonalEdgeStyle;shape=flexArrow;rounded=0;orthogonalLoop=1;jettySize=auto;html=1;fontFamily=Helvetica;fontSize=17;" parent="1" source="PCtdLvsHWJHb6pZdZKXN-58" target="PCtdLvsHWJHb6pZdZKXN-60" edge="1">
          <mxGeometry relative="1" as="geometry" />
        </mxCell>
        <mxCell id="PCtdLvsHWJHb6pZdZKXN-58" value="&lt;h3 style=&quot;font-size: 17px;&quot;&gt;&lt;font style=&quot;font-size: 17px;&quot;&gt;دیدن تصاویر &lt;/font&gt;&lt;/h3&gt;" style="whiteSpace=wrap;html=1;fillColor=#f8cecc;strokeColor=#b85450;rounded=1;labelBackgroundColor=none;labelBorderColor=none;strokeWidth=3;" parent="1" vertex="1">
          <mxGeometry x="-880.14" y="-470" width="120" height="60" as="geometry" />
        </mxCell>
        <mxCell id="PCtdLvsHWJHb6pZdZKXN-60" value="&lt;h3 style=&quot;font-size: 17px;&quot;&gt;&lt;font style=&quot;font-size: 17px;&quot;&gt;ثبت نظر&lt;/font&gt;&lt;/h3&gt;" style="whiteSpace=wrap;html=1;fillColor=#f8cecc;strokeColor=#b85450;rounded=1;labelBackgroundColor=none;labelBorderColor=none;strokeWidth=3;" parent="1" vertex="1">
          <mxGeometry x="-880.14" y="-330" width="120" height="60" as="geometry" />
        </mxCell>
        <mxCell id="PCtdLvsHWJHb6pZdZKXN-66" value="" style="edgeStyle=orthogonalEdgeStyle;shape=flexArrow;rounded=0;orthogonalLoop=1;jettySize=auto;html=1;fontFamily=Helvetica;fontSize=17;" parent="1" source="PCtdLvsHWJHb6pZdZKXN-63" target="PCtdLvsHWJHb6pZdZKXN-65" edge="1">
          <mxGeometry relative="1" as="geometry" />
        </mxCell>
        <mxCell id="PCtdLvsHWJHb6pZdZKXN-63" value="&lt;div style=&quot;font-size: 17px;&quot;&gt;&lt;font style=&quot;font-size: 17px;&quot;&gt;پر کردن&lt;/font&gt;&lt;/div&gt;&lt;div style=&quot;font-size: 17px;&quot;&gt;&lt;font style=&quot;font-size: 17px;&quot;&gt;&amp;nbsp;نام&lt;/font&gt;&lt;/div&gt;&lt;div style=&quot;font-size: 17px;&quot;&gt;&lt;font style=&quot;font-size: 17px;&quot;&gt;نام خانوادگی&lt;/font&gt;&lt;/div&gt;&lt;div style=&quot;font-size: 17px;&quot;&gt;&lt;font style=&quot;font-size: 17px;&quot;&gt;کد ملی&lt;br&gt;&lt;/font&gt;&lt;/div&gt;&lt;div style=&quot;font-size: 17px;&quot;&gt;&lt;font style=&quot;font-size: 17px;&quot;&gt;ایمیل &lt;br&gt;&lt;/font&gt;&lt;/div&gt;&lt;div style=&quot;font-size: 17px;&quot;&gt;&lt;font style=&quot;font-size: 17px;&quot;&gt;تاریخ تولد&lt;/font&gt;&lt;/div&gt;&lt;div style=&quot;font-size: 17px;&quot;&gt;&lt;font style=&quot;font-size: 17px;&quot;&gt;اینستگرام&lt;br&gt;&lt;/font&gt;&lt;/div&gt;" style="whiteSpace=wrap;html=1;fillColor=#f8cecc;strokeColor=#b85450;rounded=1;labelBackgroundColor=none;labelBorderColor=none;strokeWidth=3;" parent="1" vertex="1">
          <mxGeometry x="-1220.1399999999999" y="-430" width="120" height="160" as="geometry" />
        </mxCell>
        <mxCell id="PCtdLvsHWJHb6pZdZKXN-67" style="edgeStyle=orthogonalEdgeStyle;shape=flexArrow;rounded=0;orthogonalLoop=1;jettySize=auto;html=1;entryX=1;entryY=0.5;entryDx=0;entryDy=0;fontFamily=Helvetica;fontSize=17;" parent="1" source="PCtdLvsHWJHb6pZdZKXN-65" target="PCtdLvsHWJHb6pZdZKXN-31" edge="1">
          <mxGeometry relative="1" as="geometry">
            <Array as="points">
              <mxPoint x="-1030.1399999999999" y="-140" />
              <mxPoint x="-1030.1399999999999" y="-540" />
            </Array>
          </mxGeometry>
        </mxCell>
        <mxCell id="PCtdLvsHWJHb6pZdZKXN-68" style="edgeStyle=orthogonalEdgeStyle;shape=flexArrow;rounded=0;orthogonalLoop=1;jettySize=auto;html=1;entryX=0;entryY=0.5;entryDx=0;entryDy=0;fontFamily=Helvetica;fontSize=17;" parent="1" source="PCtdLvsHWJHb6pZdZKXN-65" target="PCtdLvsHWJHb6pZdZKXN-63" edge="1">
          <mxGeometry relative="1" as="geometry">
            <Array as="points">
              <mxPoint x="-1270.1399999999999" y="-140" />
              <mxPoint x="-1270.1399999999999" y="-350" />
            </Array>
          </mxGeometry>
        </mxCell>
        <mxCell id="PCtdLvsHWJHb6pZdZKXN-65" value="&lt;div&gt;&lt;font style=&quot;font-size: 17px;&quot;&gt;فیلد های الزامی به&lt;/font&gt;&lt;/div&gt;&lt;div&gt;&lt;font style=&quot;font-size: 17px;&quot;&gt;&amp;nbsp;درستی پر شده است؟&lt;/font&gt;&lt;/div&gt;" style="rhombus;whiteSpace=wrap;html=1;fillColor=#fff2cc;strokeColor=#d6b656;rounded=1;labelBackgroundColor=none;labelBorderColor=none;strokeWidth=3;" parent="1" vertex="1">
          <mxGeometry x="-1250.1399999999999" y="-210" width="180" height="140" as="geometry" />
        </mxCell>
        <mxCell id="PCtdLvsHWJHb6pZdZKXN-69" value="&lt;h3&gt;خیر&lt;/h3&gt;" style="text;html=1;align=center;verticalAlign=middle;resizable=0;points=[];autosize=1;strokeColor=none;fillColor=none;fontFamily=Helvetica;" parent="1" vertex="1">
          <mxGeometry x="-1260.1399999999999" y="-210" width="30" height="50" as="geometry" />
        </mxCell>
        <mxCell id="PCtdLvsHWJHb6pZdZKXN-70" value="&lt;h3&gt;بله&lt;/h3&gt;" style="text;html=1;align=center;verticalAlign=middle;resizable=0;points=[];autosize=1;strokeColor=none;fillColor=none;fontFamily=Helvetica;" parent="1" vertex="1">
          <mxGeometry x="-1080.1399999999999" y="-210" width="30" height="50" as="geometry" />
        </mxCell>
        <mxCell id="PCtdLvsHWJHb6pZdZKXN-73" style="edgeStyle=orthogonalEdgeStyle;shape=flexArrow;rounded=0;orthogonalLoop=1;jettySize=auto;html=1;fontFamily=Helvetica;fontSize=17;entryX=0.5;entryY=0;entryDx=0;entryDy=0;" parent="1" source="PCtdLvsHWJHb6pZdZKXN-71" target="PCtdLvsHWJHb6pZdZKXN-77" edge="1">
          <mxGeometry relative="1" as="geometry">
            <mxPoint x="-1540.1399999999999" y="-180" as="targetPoint" />
          </mxGeometry>
        </mxCell>
        <mxCell id="PCtdLvsHWJHb6pZdZKXN-76" style="edgeStyle=orthogonalEdgeStyle;shape=flexArrow;rounded=0;orthogonalLoop=1;jettySize=auto;html=1;entryX=0.5;entryY=1;entryDx=0;entryDy=0;fontFamily=Helvetica;fontSize=17;" parent="1" source="PCtdLvsHWJHb6pZdZKXN-71" target="PCtdLvsHWJHb6pZdZKXN-75" edge="1">
          <mxGeometry relative="1" as="geometry">
            <Array as="points">
              <mxPoint x="-1372.1399999999999" y="-340" />
            </Array>
          </mxGeometry>
        </mxCell>
        <mxCell id="PCtdLvsHWJHb6pZdZKXN-71" value="&lt;div&gt;&lt;font style=&quot;font-size: 17px;&quot;&gt;قبلا خریدی &lt;br&gt;&lt;/font&gt;&lt;/div&gt;&lt;div&gt;&lt;font style=&quot;font-size: 17px;&quot;&gt;صورت گرفته؟&lt;/font&gt;&lt;/div&gt;" style="rhombus;whiteSpace=wrap;html=1;fillColor=#fff2cc;strokeColor=#d6b656;rounded=1;labelBackgroundColor=none;labelBorderColor=none;strokeWidth=3;" parent="1" vertex="1">
          <mxGeometry x="-1622.6399999999999" y="-415" width="165" height="155" as="geometry" />
        </mxCell>
        <mxCell id="PCtdLvsHWJHb6pZdZKXN-75" value="&lt;div&gt;&lt;font style=&quot;font-size: 17px;&quot;&gt;چیزی برای نمایش&lt;/font&gt;&lt;/div&gt;&lt;div&gt;&lt;font style=&quot;font-size: 17px;&quot;&gt;&amp;nbsp;وجود ندارد&lt;/font&gt;&lt;/div&gt;" style="shape=parallelogram;perimeter=parallelogramPerimeter;whiteSpace=wrap;html=1;fixedSize=1;labelBackgroundColor=none;labelBorderColor=none;fontFamily=Helvetica;strokeWidth=3;fillColor=#e1d5e7;strokeColor=#9673a6;" parent="1" vertex="1">
          <mxGeometry x="-1457.6399999999999" y="-490" width="170" height="100" as="geometry" />
        </mxCell>
        <mxCell id="PCtdLvsHWJHb6pZdZKXN-77" value="&lt;h3 style=&quot;font-size: 17px;&quot;&gt;&lt;font style=&quot;font-size: 17px;&quot;&gt;نمایش هیستوری خرید&lt;/font&gt;&lt;/h3&gt;" style="shape=parallelogram;perimeter=parallelogramPerimeter;whiteSpace=wrap;html=1;fixedSize=1;labelBackgroundColor=none;labelBorderColor=none;fontFamily=Helvetica;strokeWidth=3;fillColor=#e1d5e7;strokeColor=#9673a6;" parent="1" vertex="1">
          <mxGeometry x="-1625.1399999999999" y="-160" width="170" height="100" as="geometry" />
        </mxCell>
        <mxCell id="PCtdLvsHWJHb6pZdZKXN-82" value="" style="edgeStyle=orthogonalEdgeStyle;shape=flexArrow;rounded=0;orthogonalLoop=1;jettySize=auto;html=1;fontFamily=Helvetica;fontSize=17;entryX=0.5;entryY=0;entryDx=0;entryDy=0;" parent="1" source="PCtdLvsHWJHb6pZdZKXN-79" target="PCtdLvsHWJHb6pZdZKXN-83" edge="1">
          <mxGeometry relative="1" as="geometry">
            <mxPoint x="-90.13999999999999" y="-692.5" as="targetPoint" />
          </mxGeometry>
        </mxCell>
        <mxCell id="PCtdLvsHWJHb6pZdZKXN-79" value="&lt;font style=&quot;font-size: 17px;&quot;&gt;خروج&lt;/font&gt;" style="whiteSpace=wrap;html=1;fillColor=#f8cecc;strokeColor=#b85450;rounded=1;labelBackgroundColor=none;labelBorderColor=none;strokeWidth=3;" parent="1" vertex="1">
          <mxGeometry x="-240" y="-750" width="120" height="60" as="geometry" />
        </mxCell>
        <mxCell id="PCtdLvsHWJHb6pZdZKXN-83" value="&lt;h1&gt;پایان&lt;/h1&gt;" style="ellipse;whiteSpace=wrap;html=1;fillColor=#dae8fc;strokeColor=#6c8ebf;strokeWidth=3;" parent="1" vertex="1">
          <mxGeometry x="-240" y="-610" width="120" height="80" as="geometry" />
        </mxCell>
      </root>
    </mxGraphModel>
  </diagram>
</mxfile>
